/* XPM */
static char *result[] = {
/* columns rows colors chars-per-pixel */
"65 64 255 2 ",
"   c #040203",
".  c #0A0406",
"X  c #05040B",
"o  c #0B050A",
"O  c #0D0A0B",
"+  c #0D0907",
"@  c #11060D",
"#  c #120C0E",
"$  c #16060A",
"%  c #060413",
"&  c #0B0513",
"*  c #0D0A13",
"=  c #06041B",
"-  c #09051C",
";  c #0C0A1A",
":  c #130513",
">  c #1A0615",
",  c #140C12",
"<  c #1A0C14",
"1  c #13051B",
"2  c #1B051C",
"3  c #130B1B",
"4  c #1B0B1C",
"5  c #151213",
"6  c #1A1416",
"7  c #15121B",
"8  c #1B141A",
"9  c #1D1A1B",
"0  c #191817",
"q  c #15100E",
"w  c #24081C",
"e  c #22131D",
"r  c #221C1E",
"t  c #28161C",
"y  c #0B0524",
"u  c #0D0A22",
"i  c #0B052C",
"p  c #0E0A2B",
"a  c #060224",
"s  c #130C23",
"d  c #1B0C23",
"f  c #140D2B",
"g  c #1C0C2B",
"h  c #170628",
"j  c #151224",
"k  c #1C1324",
"l  c #1D1B23",
"z  c #1C142B",
"x  c #1D192B",
"c  c #17102B",
"v  c #0C053B",
"b  c #0E0734",
"n  c #120C33",
"m  c #1B0B33",
"M  c #140B3C",
"N  c #1C0C3B",
"B  c #150638",
"V  c #1B1433",
"C  c #1A1338",
"Z  c #220622",
"A  c #230A23",
"S  c #2B0C24",
"D  c #230B2B",
"F  c #2B0B2C",
"G  c #280720",
"H  c #330C29",
"J  c #231424",
"K  c #231D22",
"L  c #24142B",
"P  c #2C132B",
"I  c #241C2B",
"U  c #2C1A28",
"Y  c #33132B",
"T  c #240C33",
"R  c #2C0C33",
"E  c #250D3C",
"W  c #2B0C3A",
"Q  c #2D0732",
"!  c #350C38",
"~  c #221333",
"^  c #2B1434",
"/  c #2C1B34",
"(  c #24133B",
")  c #2C143C",
"_  c #251D3B",
"`  c #2D1B3C",
"'  c #241C34",
"]  c #331334",
"[  c #3A1134",
"{  c #351B3C",
"}  c #381638",
"|  c #252223",
" . c #2A2426",
".. c #25222C",
"X. c #2B252A",
"o. c #2D2A2B",
"O. c #312C2E",
"+. c #33252C",
"@. c #2B2537",
"#. c #332C34",
"$. c #34233D",
"%. c #352938",
"&. c #3D353A",
"*. c #393537",
"=. c #43153C",
"-. c #430E3B",
";. c #413D3F",
":. c #0E0645",
">. c #140B44",
",. c #150B4A",
"<. c #1A0C4A",
"1. c #180846",
"2. c #1C1344",
"3. c #1B124D",
"4. c #1C1643",
"5. c #150952",
"6. c #1A0C55",
"7. c #1B0C5B",
"8. c #15085A",
"9. c #1B1157",
"0. c #0F0353",
"q. c #230D42",
"w. c #2A0C48",
"e. c #3A0E47",
"r. c #370D46",
"t. c #241345",
"y. c #2E1441",
"u. c #241B44",
"i. c #29124D",
"p. c #2B1C4C",
"a. c #281849",
"s. c #3A1343",
"d. c #341B43",
"f. c #34154B",
"g. c #3C134A",
"h. c #35184A",
"j. c #240C54",
"k. c #220C5B",
"l. c #2B0F55",
"z. c #370D59",
"x. c #231354",
"c. c #291758",
"v. c #321554",
"b. c #391858",
"n. c #2B2346",
"m. c #372745",
"M. c #3B3842",
"N. c #382756",
"B. c #332B51",
"V. c #1A0C62",
"C. c #180A69",
"Z. c #1D1166",
"A. c #1C0B77",
"S. c #250D68",
"D. c #2B1362",
"F. c #261669",
"G. c #3C1663",
"H. c #371968",
"J. c #220D76",
"K. c #350E7A",
"L. c #271577",
"P. c #381977",
"I. c #350D64",
"U. c #3A2762",
"Y. c #362971",
"T. c #461548",
"R. c #461958",
"E. c #551857",
"W. c #4D114C",
"Q. c #452447",
"!. c #443C46",
"~. c #462658",
"^. c #473B57",
"/. c #572853",
"(. c #431A63",
"). c #471867",
"_. c #581967",
"`. c #461877",
"'. c #551A75",
"]. c #641C65",
"[. c #661B75",
"{. c #701D76",
"}. c #462667",
"|. c #592469",
" X c #4B3A67",
".X c #563B68",
"XX c #472776",
"oX c #572779",
"OX c #563876",
"+X c #4A3C75",
"@X c #642367",
"#X c #692677",
"$X c #6E3073",
"%X c #494457",
"&X c #4C4B4D",
"*X c #5A5767",
"=X c #514471",
"-X c #645976",
";X c #6D5176",
":X c #6A6773",
">X c #250D84",
",X c #370E89",
"<X c #291686",
"1X c #391788",
"2X c #3A1696",
"3X c #2E0E98",
"4X c #3A2789",
"5X c #3A15A6",
"6X c #3B15B9",
"7X c #1C0981",
"8X c #461A86",
"9X c #471997",
"0X c #521999",
"qX c #4B138F",
"wX c #681F95",
"eX c #6D1B88",
"rX c #482786",
"tX c #562786",
"yX c #493689",
"uX c #4E2399",
"iX c #552D97",
"pX c #652987",
"aX c #752687",
"sX c #692894",
"dX c #772696",
"fX c #64388C",
"gX c #471AAB",
"hX c #491CB8",
"jX c #511CB9",
"kX c #591CAA",
"lX c #4D28A8",
"zX c #5327A8",
"xX c #542FB1",
"cX c #7728A3",
"vX c #6931AE",
"bX c #5D5687",
"nX c #6A568F",
"mX c #75658A",
"MX c #6B4FB7",
"NX c #7D60AF",
"BX c #531CC8",
"VX c #501CDA",
"CX c #5726C7",
"ZX c #5626D4",
"AX c #632BD6",
"SX c #6A31D4",
"DX c #6932E9",
"FX c #5E25E0",
"GX c #6C40D0",
"HX c #842C97",
"JX c #8330AB",
"KX c #8B4C99",
"LX c #8D5EB5",
"PX c #8D5DD6",
"IX c None",
/* pixels */
"0 . . 5     . o. .$ 5 O   . , 5 9       o # 0 X X O X   . . q X X X 7 X X X ; u y & ; % = - - = = a s = X   X   ; #.      X     IX",
".   5 .   + + . .   $ |     o # 5       O O O X O   X X o . 7 5 * % * % X ; j y - - = % - % = - - = = % X X X X % ;     X X     IX",
"          # 5 $ e . . q     O 5 X       O * 5 O X   O X o * &XM.7 7 j ; = - V i h = = = a = = % X - p % X X %   X 5   X *   X   IX",
"O 9     . O # . . + . . O.O | o 9         O O X o , o 7 !.7 l ..0 = % % u i p B i m i i b a % X X p = X X % % * X X X X X X     IX",
"O         9 5 + < . $   O  .5 # 0 .   .   O   * 8 #.O 7 d & X X X % X % - f B <.1.1.B v M f a = % u = % = = % ; ; l   X X X X   IX",
"o.    + + q + # . . + O < ;.5 , * 5 O   X   o . X.@ o 3 1 1 > X X X X 0 -  Xt.j.6.<.c.1.v n a u = u % - a u % ; % % X X % . X   IX",
"O.+     O O   O   6   $ 9 # 6 o q X   7 9 * , X , & , > 1 - 1 &       O & u.a.k.S.7.3.2.v i y - & % = % V - % = % % X X *       IX",
"X O     +     X . t $ . | +           0 o.. * , J k 1 1 4 h h & O % X o & i 1.c.S.8.>.v b b i = % X   % ; ; % u - % ; % * X     IX",
"      q 6 .   o k X.$ o. .6 .   X   X   0 O O I #.L / L / h D g z 1 s 3 = h 1.6.k.6.1.i p i a y = = % * x u ; a p = = * * X X   IX",
"    O 9 5 . o.@.-XX.6 r q .   O.o.+ 5 O | O 6 * 4 1 K d d.N.m h h m m f @.c i.7.D.F.,._ u a p ; j n :.a @.j p i p u u ; 7 X X X IX",
"    &X  . + 9 * %Xo o > # .     O l 9 5   0 * 3 & z I R y.~.W h B 1.N N - ~ x.7.D.9.3.4.u a i ; p v 0.v n.4.b v 4.n.p = % X % ; IX",
"  O  .| 6 O 8 X.0 + . . + . O + 9 * | o.X 0 * 7 D 2 L T h.w.w.m E bXq.1.s ' x.7.x.x.,.c.v 3.>.y b >.9.>.4.v :.:.4.p p = ; * ; #.IX",
"* *Xx 5 6 O l K . # . + .   + # 9 + 5 l   o.K 3 > d { ) h.R.l.l.i.+Xw.t.N t.c.j.1.y 4.Z.V.,.b v v 5.>.3.V.:.:.4.M i n u ; * X ; IX",
"5 !.l X # O %X#   . O     # O # 9   5   O ..8 > 4 ^ ` h.h.R.b.w.w.q.l.U.x.k.P.V.b p p Y.L.5.v 5.5.8.5.9.8.:.>.4.M M u f j % X X IX",
"+ * X 9 r # *X0 0 q . . .   O . o   .   O o 3 1 1 D d.W ~.~.b.w.w.i.j.OXXXS.,XJ.p b c.F.L.5.:.8.A.A.C.C.8.:.5.3.:.v n i x % X X IX",
"    + 9 6   . 0 0 # . . + . o.. . .   5 O , X.: 1 h W W ~.}.(.z.l.v.j.XXyXK.2XK.s l F.yXF.9.9.L.7X7XA.L.Z.3.9.3.,.>.b a ; % *   IX",
"    + r .   . O j , 9 O O # o O +     . l X . X : d T W { r.(.z.l.m ) P.1X1X1X1Xp.s S.L.5.,.,.A.<X7X7XZ.Z.9.9.c.>.>.b n ; * *   IX",
"  . 0  .. . o K *X* # . .   + | O O . . O q O   X d ^ W g T f.q.g z h P.8X9X2X2XP.V.S.L.5.>.,.A.7X7XL.V.C.9.4.,.>.,.v n u x X   IX",
"  + 0 | . .   K 7 O &.| O   O + 0 O       , o M.#.: d d 3 s $.' z ^.z i.1X8X2XgX3XxXP.L.9.:.,.C.<XL.L.A.A.<XZ.Y.:.:.5.4.u = ; X IX",
"    + . . . . 5 q + 0 9 O.. . + .   . X 7 *.< , : 3 K %.%.s m.k L m.k m 4X1XlXBXgXMX<X7.n u V >.C.Z.Z.Z.<X<XC.Z.9.9.3.M u = * % IX",
"    q X .     q + O 5 0 O.r   #   o   , #.%.@ 1 : > k #.3 s J k s @.s m H.P.1XgX5XMX2Xx.p B.u.4.9.,.3.5.L.<X7XZ.V.Z.>.i = ; * l IX",
"+ + + O O O   l   | r .   # # + . o o o o 1 ' bX1 : 3 / L d k k k J s N U.x.rXgX5X5X5XN.u B.3.4.F.9.>.3.V.C.L.Z.C.Z.>.a = = % X IX",
"#.0 O O + X q q 5 0 0 + . O     0 5 < . o o ' =X1 1 d L L I x / K 7 p.i.v.z.rXxXlXjX5X3.l j C 9.L.6.5.Z.9.Z.Z.Z.Z.Z.n u ; = % % IX",
"r *.O O 0   9 0 o r  .q . o.0 + | r 5 . X . 1 s o s 4 A $.k l / @.J }.H.w.H.2XhXCXjX6X9.a j 3.<XJ.5.8.<XY.4XL.Z.F.4.u u u = % X IX",
"# $   #  .  r | 0 q . O &.# 9 0 O r X.: * 6 # < > 4 & D { ` n.z z L c.XXb.H.P.CXAXDXCXF.z ` Y.4XA.c.F.<X<XJ.V.9.9.n j ; ; ; % % IX",
"+ r O 9  .. 5 q 5 o q    .6 + . 0 < @ 8 > > 1 : 4 3 3 F d.OXnXN.d.y.d.nXt.( S.VXAXBXgXY.a.N.lX4XL.Z.L.Z.Z.5.b M >.p ..u ; ; = #.IX",
". $ O r  .5 9 5 O + l   + 6 0 . . o.@ > , , / > d U $.m.s.(.XX).b.f.m..X~.N.P.jXCX9XP.D.D.L.hX5X3X7X4X3.M p u a a x u l ; % 7 ; IX",
". # # 0 0 # + # 0 + # 9   5 O 5 . , @ 8 e e 4 w P L m.F R.`.'.nXb.q.b.P.rXiXuX9XxXrXP.xX2XhXZXZX6X5XbXC @.x n >.C l x u u ....u IX",
"# 6 # + r   . 0     . r     O q . , o 4 J < w A @./ / ^ .XbX'.fX}.N.NXgXkXvXzX`.b.P.uXlXhXZXDXVX6X3XM j p x b :.M x x ; j u ; x IX",
" .6 $ < # . 0 9 5 5 # r   . O | O | @ 8 > 4 t ^.%./ D ` N. X_.pX).G.`.kXSXkX,XU.+XP.xXhXAXDXDXVX3X<XC j n C u.>.4.' x x j u x j IX",
"$ . . $ # + 6 r *.# 5 9     9 + X.8 e 4 < > %.%./ P ^ { T h.).'.oXG.).LXkX0XP.N. Xc.lXBXZXDXDXhX<X4X>.f C C n.p n u x n.p y p = IX",
"  . $ . 6 . $ O   + 9 0 . . 5 # # . $ *., 8 w F ] H Q ! s.~.R.z.).G.).iX0X0XH.N.t.q.H.gXCXFXZXxX1X1XS.H.4.V C %Xu x C f p a x = IX",
"  . . . . $ O.  + 5 r .     9  .> q , 5 8 : w F ] { E.r.r.|.R.'.G.}.`.LXzX0X=X%XB.V i.zXSXAXCXzXrX2X,XL.D.n x =X@.M 2.n.i - ; - IX",
"> $ +.$ . 6 8 # . 9 .   . 5 q !.*.6 6 J *., &.4 } g.T.r.)._.).R.).}.}.vXiXtXi.M.%Xz T uXPXSXjX9X1XxX,XF.k.3.x 2.n.p.c.n.f = % z IX",
"0 | # . $ o.6 + +   . . q r O 7 + 6 < $ K &., : ] T.W.R._._.R.~.(.OXqX'.(.(.v.m.c $.d.D.CXCXBXgXzX1Xk.c.x.n.g M p n.x.3.V ; % u IX",
"$ q + # 5 $ q # r #   + . 0 l @.  6 # : : M.k , P [ T.E._._.R.b.#XiXdXoX).iX).b.` _ ' _ Y.9XlX1XMXj.a.n.c m <.<.4.n.C p.f * * ; IX",
"6 , , r 0 # 6 +  .5 +     0 0 :X. | # @ e > 0 o 4 } T.E.#X'.R.b.wXwXsXsXsXtX`.`.v.) z 8 y.XXU.^.i.C t.x o.c.L.k.9.u.u.u.m.; % % IX",
". ..I . t 6 . .   O .       X O *  .6 # +.8 & , ' F g.E.#X#X|.R.sXcXwXpXpXtXG.`.`.G.n.L $.N.q.bXB.s t.u - j.yXH.9.4.p @.@.% X 7 IX",
"+  .o.$ e + o O O .   + 9 O   . o 8 < e +.J < I ^.! E.E.@XpXpX{.dXcXcX'.XX_.b.(.tXrXv.z z p.l.V s K ~ V f c.rXP.c.n ; ; 7 @.X X IX",
"5 # t =.t 9 # O q +   5 r , 9 9 &.| 9 $ < @ < o...D T.$X@X{.dXdXJXcXcXpXg.~.^.=XoXtX}.z I a.N.c s B.( mXa.D.S.P.c.f * l @...x 5 IX",
"0 o $ w $ . # . +   ;.0   + | # !.# X o . o o @ & / T./.].{.HXdXHXeXdXoX~.s.m.m.OX).}.~ k ( E h p.j.G.}.D.D.P.P.i.f ; u l u l X IX",
"0 O # + + . # +   X 5 5 0 O | | | O . o     @ : 5 t { $XE.$XHXdXJXeXsXoXh.h.` -XN.R.b.d.@.g f T v.8X8X8XK.8X,XH.i.z j ; ; * X X IX",
"  0 0 5   . + . O O.O + 5 X O 9 . . o . O o . @  .X J s.E._.{.KXpXaXaX(.d.$.I ^.h.v.}.}.B.^.d.E XXrXK.K.qXqXP.H.q.m k ; X * X X IX",
"+ # + 8 . 0 +   O O   @.x     | + . O . . r > : 8 * e 4 [ E._.aXeXdX[.R.^ $.J g y.f.b..Xn.U.v.$.}.c.z.K.gXgXI.i.t.m 3 ; l * % * IX",
"9 . . 6   0           *XM.8 + + O.5 # . > K e < @ : < S ] W.$X{.aXaX_.r.L ^.M.~ y.{ E ^.m.b.l.4 q.U.b.XXqX8XI.N.V V 7 l ; % % X IX",
";.. q O . 0 |     o O l 7 8 q . . . + . $ 5 &.> @ o o X.P -.$XaXaX{._.! ^ m.~.m.( { ( n.v.w.q.m I.XXG.iX8XtXG.q.E p ; j % 5 * * IX",
"  O   +   . 6       . 7 8 # #   O X 9 . # , X e : O , < U Q.].{.aX[.].R.$.mX{ h.g.f.m.b.H.N.D v.'.`.`.`.G.G.I.w.q.m 7 7 O 5 X l IX",
"  .   .   . #     o 9 X.,   # # O   + O + X : +.@ 8 5 @ Y /.@X].{.[.[.W.T./ ^ s.).}.D N.v.y.D }.).G.I.G.w.m v.w.N g l * X X X * IX",
"  # .     . #       5  .o   + | $ O K *.# . & e o : o < S /.W.@XHXaX[.@XQ.L 2 W R.|./ ^ y.) g.R.W W E w.P 1 T ( h : 3 X * . . l IX",
"      . + O 0         . #   q + 5 + q e &.O o $ . . o @ +././.@X@XLX#X;X~.Q.m.~ r.b.h.` $.g.).z.T m ;XT m.d z k & & , & * X X q IX",
"    . . . q 0       . . +   . O . # 6 # 6 r . < X o o * ;.=.W.E.E.@X@XE./.Q.d D s.d./ @.h.).'.(.D s d g $.h L 3 3 o & 5 * X     IX",
"      . *.# #         5   5 # l . r r $ O @ . . o O # 5 %.=.=.W.E.@XT.Q.{ K J ! T.d d d.W ).oXb.g 8 I ..d m.1 k k & & X & X     IX",
"    # O O O   + o.o.# *   +   5 | r r $ . . O o @ r $ 5 J S ! E.].KX{ L L K S W g.L 4 ` r.).'.@XD > 3 o 1 h d 7 K j & X o       IX",
"    O.O X.3 . o 9 &.  . 5     9 O # r 6 @ # O o #.@  .e L e H -.W.E.R ] ] P P s.s.m.L ^ T.)._.e.Z d D : d 1 1 k 3 , , & * X   o IX",
"    $ . -X@.+ # # q + . + . + o.5 # # + ;.$ . + > $ r #.w w w H H =.T.T.=.] } s.! ) h D R._.).R.W ^ ^ d d 3 , 3 3 3 , & X X     IX",
".   9 . #.* .       # O + O   O # O . o 9 O O     + w e t w w w Y =.-.T.T.Q.! ! ] Z 2 } g.r.e.e.e.r.R L 1 3 #.* * * * % o     X IX",
". q 0 + o         + . . r | . # 5 O |   q 9       $ O.> w $ o.w H =.=./.H [ Y F 2 2 d F T.Q r.e.g.~.Q 2 1 o 8 l 9 * * O *     X IX",
"  5 | . + O +     o +   . .   # q r O 9 + +   O . . t < $ 6 > > t -.Y -.-.S P 4 4 Z Z Q r.R R e.T.m.Z 1 X O , 7 7 X o X 0     X IX",
"  5 0   . . + #       .   . . | + . .             # + O .   # w Y H [ [ [ S : X.J Z A F ! R R ! ! D 1 o o .       X           X IX",
". 5       .                 0 O O   .   . .       . .   $ O q !.t H Y [ } w : , > Z Z ! ! Z F Q { A e o o o         X         X IX",
". # .       . q             O . + .         + .   . . O . # < U w w H H H w > @ > Z Z R Q Z Z Q Y > l : & X .       .           IX",
"q   . O o     .                       r .   5       . . $ < .   $ w w G [ S @ @ > 2 Z F F Z w 2 4 @ . : : o .   * O     +       IX",
"| O r O                     +         #     .       O O $ X .   $ > w G H w > : @ > 2 w S G w 2 : @ @ : : o     X O   .         IX",
"+ +           .                             . O     6 5 ;.. @   + > w w H H > : > J e > 2 w 2 1 4 @ o @ o O o X . 9             IX"
};
